HIERARCHY
ROOT SpineBase
{
  OFFSET 0.000000 0.000000 0.000000
  CHANNELS 6 Xposition Yposition Zposition Zrotation Xrotation Yrotation
  JOINT SpineMid
  {
    OFFSET 0.000000 31.371040 0.000000
    CHANNELS 3 Zrotation Xrotation Yrotation
    JOINT SpineShoulder
    {
      OFFSET 0.189196 23.326019 -0.734762
      CHANNELS 3 Zrotation Xrotation Yrotation
      JOINT Neck
      {
        OFFSET 0.128019 7.727148 -0.548725
        CHANNELS 3 Zrotation Xrotation Yrotation
        JOINT Head
        {
          OFFSET 4.700141 12.774982 4.243035
          CHANNELS 3 Zrotation Xrotation Yrotation
          End Site
          {
            OFFSET 0 0 0
          }
        }
      }
      JOINT ShoulderLeft
      {
        OFFSET -9.800352 -3.853061 -11.282015
        CHANNELS 3 Zrotation Xrotation Yrotation
        JOINT ElbowLeft
        {
          OFFSET -8.043549 -22.855510 -5.472125
          CHANNELS 3 Zrotation Xrotation Yrotation
          JOINT WristLeft
          {
            OFFSET 12.820693 -16.566444 -4.129772
            CHANNELS 3 Zrotation Xrotation Yrotation
            JOINT HandLeft
            {
              OFFSET 6.423228 -5.179621 2.919923
              CHANNELS 3 Zrotation Xrotation Yrotation
              JOINT HandTipLeft
              {
                OFFSET 7.760731 -3.782720 -3.142608
                CHANNELS 3 Zrotation Xrotation Yrotation
                End Site
                {
                  OFFSET 0 0 0
                }
              }
              JOINT ThumbLeft
              {
                OFFSET -4.635982 -5.115383 -0.269080
                CHANNELS 3 Zrotation Xrotation Yrotation
                End Site
                {
                  OFFSET 0 0 0
                }
              }
            }
          }
        }
      }
      JOINT ShoulderRight
      {
        OFFSET 13.042312 -5.464774 12.018601
        CHANNELS 3 Zrotation Xrotation Yrotation
        JOINT ElbowRight
        {
          OFFSET 3.747059 -25.248653 4.720240
          CHANNELS 3 Zrotation Xrotation Yrotation
          JOINT WristRight
          {
            OFFSET 0.091231 -17.220476 -18.057890
            CHANNELS 3 Zrotation Xrotation Yrotation
            JOINT HandRight
            {
              OFFSET -2.579462 -1.562946 -6.080058
              CHANNELS 3 Zrotation Xrotation Yrotation
              JOINT HandTipRight
              {
                OFFSET 4.311605 -4.053925 -5.076621
                CHANNELS 3 Zrotation Xrotation Yrotation
                End Site
                {
                  OFFSET 0 0 0
                }
              }
              JOINT ThumbRight
              {
                OFFSET -3.987224 2.713668 -7.706075
                CHANNELS 3 Zrotation Xrotation Yrotation
                End Site
                {
                  OFFSET 0 0 0
                }
              }
            }
          }
        }
      }
    }
  }
  JOINT HipLeft
  {
    OFFSET -4.345938 1.950949 -7.513124
    CHANNELS 3 Zrotation Xrotation Yrotation
    JOINT KneeLeft
    {
      OFFSET -2.652351 -35.906996 -13.138054
      CHANNELS 3 Zrotation Xrotation Yrotation
      JOINT AnkleLeft
      {
        OFFSET -7.962481 -41.597847 6.815328
        CHANNELS 3 Zrotation Xrotation Yrotation
        JOINT FootLeft
        {
          OFFSET 0.064922 -7.877891 -6.782374
          CHANNELS 3 Zrotation Xrotation Yrotation
          End Site
          {
            OFFSET 0 0 0
          }
        }
      }
    }
  }
  JOINT HipRight
  {
    OFFSET 5.034345 -0.204730 0.486604
    CHANNELS 3 Zrotation Xrotation Yrotation
    JOINT KneeRight
    {
      OFFSET 0.642246 -38.626040 1.699385
      CHANNELS 3 Zrotation Xrotation Yrotation
      JOINT AnkleRight
      {
        OFFSET -8.529292 -37.027121 7.952829
        CHANNELS 3 Zrotation Xrotation Yrotation
        JOINT FootRight
        {
          OFFSET 4.399456 -7.445250 -5.516896
          CHANNELS 3 Zrotation Xrotation Yrotation
          End Site
          {
            OFFSET 0 0 0
          }
        }
      }
    }
  }
}
MOTION
Frames: 9
Frame Time: 0.033333
-32.414097 86.034724 353.091225 -0.000000 0.000000 -40.458332 -0.000000 0.000000 40.458332 -0.000000 0.000000 0.000000 -0.000000 0.000000 0.000000 0.000000 0.000000 0.000000 -0.000000 0.000000 0.000000 -0.000000 0.000000 0.000000 -0.000000 0.000000 0.000000 -0.000000 0.000000 0.000000 0.000000 0.000000 0.000000 0.000000 0.000000 0.000000 -0.000000 0.000000 0.000000 -0.000000 0.000000 0.000000 -0.000000 0.000000 0.000000 -0.000000 0.000000 0.000000 0.000000 0.000000 0.000000 0.000000 0.000000 0.000000 -0.000000 0.000000 40.458332 -0.000000 0.000000 0.000000 -0.000000 0.000000 0.000000 0.000000 0.000000 0.000000 -0.000000 0.000000 40.458332 -0.000000 0.000000 0.000000 -0.000000 0.000000 0.000000 0.000000 0.000000 0.000000
-32.302554 86.292343 352.339092 0.128637 0.525558 -41.345186 0.250611 -0.479535 41.345644 -0.000000 0.000000 0.000000 -0.000000 0.000000 0.000000 0.000000 0.000000 0.000000 0.163200 0.781191 -0.314759 -0.158921 -0.782073 0.312562 -0.000000 0.000000 0.000000 1.668524 0.097776 -1.151831 0.000000 0.000000 0.000000 0.000000 0.000000 0.000000 -0.000000 0.000000 0.000000 0.524566 0.545694 -0.546937 -0.869365 1.919217 -2.036104 0.228359 4.964205 9.743492 0.000000 0.000000 0.000000 0.000000 0.000000 0.000000 1.322016 -2.541876 41.747579 0.885838 3.043152 -0.501218 0.570487 -1.444007 -0.644700 0.000000 0.000000 0.000000 -0.268288 -1.268499 41.293509 1.349085 -0.533120 0.317772 -5.580963 -3.820473 0.711466 0.000000 0.000000 0.000000
-32.238714 86.476045 351.604093 0.275176 0.949626 -42.145294 0.203069 -0.083685 42.149969 -0.369667 -0.751280 -0.007973 -0.000000 0.000000 0.000000 0.000000 0.000000 0.000000 0.369728 1.479667 -0.612860 -0.354001 -1.483507 0.603502 0.236906 0.468303 0.713134 2.885898 -0.313536 -2.781537 0.000000 0.000000 0.000000 0.000000 0.000000 0.000000 -0.000000 0.000000 0.000000 1.071308 1.119892 -1.116442 -1.674372 3.156420 -3.226065 -0.772522 9.021547 17.571620 0.000000 0.000000 0.000000 0.000000 0.000000 0.000000 2.498364 -4.797101 42.976089 1.780902 5.691430 -1.000410 1.125776 -2.745784 -1.276556 0.000000 0.000000 0.000000 -0.397721 -2.207635 42.050889 2.326253 -1.112546 0.602727 -9.339061 -5.951034 1.111872 0.000000 0.000000 0.000000
-32.222578 86.585828 350.886228 0.439400 1.270977 -42.867066 0.287252 -0.099856 42.875259 0.133068 -0.294513 0.031872 -0.715611 -0.707377 -0.043493 0.000000 0.000000 0.000000 -0.095456 1.388494 -0.930930 0.377230 -2.071651 0.684082 -0.362462 0.480210 1.178135 3.737889 -0.271672 -3.721862 0.000000 0.000000 0.000000 0.000000 0.000000 0.000000 -0.715611 -0.707377 -0.043493 1.642343 1.723831 -1.710656 -2.475081 3.811336 -3.690979 -2.156068 11.686477 23.242963 0.000000 0.000000 0.000000 0.000000 0.000000 0.000000 3.505708 -6.776544 44.135510 2.679610 7.939269 -1.487839 1.665053 -3.902456 -1.903579 0.000000 0.000000 0.000000 -0.411060 -2.818823 42.747458 2.936463 -1.732318 0.856725 -11.135667 -6.235481 1.397000 0.000000 0.000000 0.000000
-32.254145 86.621694 350.185496 0.621020 1.488815 -43.517546 0.358712 -0.099987 43.530114 0.170729 -0.344191 0.044766 -1.024177 -1.673690 0.262258 0.000000 0.000000 0.000000 -0.071714 1.806806 -1.212129 0.523467 -2.639260 0.830820 -0.239311 0.404898 1.464616 4.159890 -0.059642 -4.347279 0.000000 0.000000 0.000000 0.000000 0.000000 0.000000 -0.983933 -0.824162 -0.063255 2.239975 2.358777 -2.331912 -3.303488 3.945336 -3.495739 -3.311605 13.012183 26.703148 0.000000 0.000000 0.000000 0.000000 0.000000 0.000000 4.324000 -8.492590 45.217558 3.575631 9.783133 -1.953104 2.187138 -4.910654 -2.533855 0.000000 0.000000 0.000000 -0.325611 -3.102297 43.394851 3.182064 -2.387421 1.079983 -10.933542 -4.629146 1.605831 0.000000 0.000000 0.000000
-32.333417 86.583641 349.501898 0.819677 1.602755 -44.102552 0.416793 -0.084796 44.120509 0.204921 -0.369335 0.058338 -1.407316 -1.770618 0.286406 0.000000 0.000000 0.000000 -0.020077 2.204571 -1.479756 0.677972 -3.147563 0.937423 0.014092 0.204344 1.691270 4.138585 0.341056 -4.651885 0.000000 0.000000 0.000000 0.000000 0.000000 0.000000 -1.266190 -0.880821 -0.084997 2.866718 3.026012 -2.982748 -4.174112 3.582221 -2.654363 -3.938437 13.229948 28.003505 0.000000 0.000000 0.000000 0.000000 0.000000 0.000000 4.936138 -9.958163 46.214613 4.462160 11.220357 -2.385274 2.690576 -5.766303 -3.175621 0.000000 0.000000 0.000000 -0.154087 -3.056450 44.000170 3.062667 -3.073974 1.271228 -8.723910 -1.120509 1.589521 0.000000 0.000000 0.000000
-32.552450 86.438391 348.797855 0.998935 1.535913 -44.351241 0.480113 -0.003290 44.377885 0.271142 -0.351680 0.075752 -2.047141 -1.596647 0.299897 0.000000 0.000000 0.000000 0.198250 2.493273 -1.744073 0.360267 -3.293166 1.195541 1.424602 -1.107586 1.111312 2.884278 1.779906 -4.096245 0.000000 0.000000 0.000000 0.000000 0.000000 0.000000 -1.163585 0.037143 0.105478 3.373946 2.956837 -4.125580 -5.391825 1.982722 -0.035933 -2.997193 14.609361 26.301016 0.000000 0.000000 0.000000 0.000000 0.000000 0.000000 5.263249 -10.987265 46.778886 5.154884 12.023780 -2.672226 3.192640 -5.688164 -3.862374 0.000000 0.000000 0.000000 -0.006070 -2.693010 44.283701 2.875355 -3.737660 1.472499 -0.248917 8.317781 -0.185237 0.000000 0.000000 0.000000
-32.769338 86.218819 348.086887 1.229914 1.447070 -45.039830 0.518001 0.042131 45.074943 0.308937 -0.318488 0.090532 -2.491844 -1.571604 0.323745 0.000000 0.000000 0.000000 0.318088 2.838839 -1.993259 0.977716 -3.839463 1.013072 1.097670 -1.106914 1.605916 1.978251 2.468698 -3.261227 0.000000 0.000000 0.000000 0.000000 0.000000 0.000000 -1.436350 0.185988 0.102937 4.224488 3.651682 -5.060720 -6.005900 -1.066387 3.253331 -3.272709 13.762323 22.671608 0.000000 0.000000 0.000000 0.000000 0.000000 0.000000 5.520673 -11.995109 47.815754 5.941332 12.661190 -2.990133 1.352540 -9.338511 -2.653776 0.000000 0.000000 0.000000 0.154675 -1.892739 45.026852 2.018193 -4.714572 1.595499 4.942920 13.392580 -2.109801 0.000000 0.000000 0.000000
-32.953786 85.959576 347.395282 1.519856 1.285205 -45.684731 0.520428 0.072548 45.729451 0.313661 -0.283326 0.103602 -2.839897 -1.343201 0.269398 0.000000 0.000000 0.000000 0.422550 3.283362 -2.256147 1.177612 -4.334083 1.008607 1.378563 -1.423851 1.753778 1.028821 2.933916 -3.155311 0.000000 0.000000 0.000000 0.000000 0.000000 0.000000 -1.708659 0.082808 0.054704 4.872808 4.932572 -5.753368 -6.440561 -3.963460 6.317816 -2.799169 13.304390 18.579091 0.000000 0.000000 0.000000 0.000000 0.000000 0.000000 5.533183 -12.917541 48.801936 6.836023 13.028742 -3.308281 4.935105 -6.274423 -5.951901 0.000000 0.000000 0.000000 0.898671 -0.602829 45.767908 -0.066922 -5.526809 1.568265 8.123345 17.121606 -2.910305 0.000000 0.000000 0.000000
